<svg width="9" height="12" viewBox="0 0 9 12" fill="none" xmlns="http://www.w3.org/2000/svg">
<path d="M4.28012 11.208C3.63878 11.208 3.05162 11.0975 2.51862 10.8765C1.98562 10.6555 1.53495 10.3457 1.16662 9.947C0.798284 9.54833 0.540451 9.07817 0.393117 8.5365L2.34312 7.6135C2.37345 7.96017 2.46878 8.26783 2.62912 8.5365C2.79378 8.80083 3.01695 9.00883 3.29862 9.1605C3.58462 9.30783 3.91395 9.3815 4.28662 9.3815C4.80662 9.3815 5.22045 9.2385 5.52812 8.9525C5.84012 8.6665 5.99612 8.28733 5.99612 7.815C5.99612 7.477 5.92028 7.17583 5.76862 6.9115C5.61695 6.64283 5.41112 6.43267 5.15112 6.281C4.89545 6.125 4.60945 6.047 4.29312 6.047C4.11112 6.047 3.95512 6.073 3.82512 6.125V4.721H4.31262C4.59428 4.721 4.84778 4.65167 5.07312 4.513C5.30278 4.37 5.48478 4.1815 5.61912 3.9475C5.75778 3.7135 5.82712 3.46217 5.82712 3.1935C5.82712 2.92917 5.75778 2.69083 5.61912 2.4785C5.48478 2.26617 5.30278 2.09717 5.07312 1.9715C4.84345 1.84583 4.58562 1.783 4.29962 1.783C4.01362 1.783 3.74712 1.848 3.50012 1.978C3.25745 2.108 3.05595 2.28567 2.89562 2.511C2.73528 2.73633 2.63345 2.99633 2.59012 3.291L0.919617 2.511C1.04095 2.02567 1.26412 1.601 1.58912 1.237C1.91412 0.868666 2.31278 0.584832 2.78512 0.385499C3.26178 0.181833 3.77962 0.0799996 4.33862 0.0799996C4.99295 0.0799996 5.57578 0.214333 6.08712 0.483C6.60278 0.751666 7.00795 1.11783 7.30262 1.5815C7.59728 2.04083 7.74462 2.56517 7.74462 3.1545C7.74462 3.45783 7.69912 3.74167 7.60812 4.006C7.52145 4.27033 7.39578 4.51083 7.23112 4.7275C7.06645 4.94417 6.86712 5.1305 6.63312 5.2865C6.93645 5.44683 7.19862 5.6505 7.41962 5.8975C7.64062 6.1445 7.80962 6.42833 7.92662 6.749C8.04362 7.06533 8.10212 7.4185 8.10212 7.8085C8.10212 8.4585 7.94178 9.04133 7.62112 9.557C7.30045 10.0683 6.85195 10.4713 6.27562 10.766C5.70362 11.0607 5.03845 11.208 4.28012 11.208Z" fill="white"/>
</svg>
