<svg width="19" height="12" viewBox="0 0 19 12" fill="none" xmlns="http://www.w3.org/2000/svg">
<path d="M2.00363 11L5.18863 7.2235C4.93296 7.38383 4.61663 7.464 4.23963 7.464C3.79763 7.464 3.3708 7.37517 2.95913 7.1975C2.54746 7.0155 2.17913 6.75983 1.85413 6.4305C1.52913 6.10117 1.2713 5.71117 1.08063 5.2605C0.889962 4.8055 0.794629 4.305 0.794629 3.759C0.794629 3.07433 0.950629 2.45467 1.26263 1.9C1.57463 1.341 2.02313 0.896833 2.60813 0.5675C3.19313 0.233833 3.8973 0.0669997 4.72063 0.0669997C5.55696 0.0669997 6.28713 0.238166 6.91113 0.5805C7.53513 0.922833 8.02046 1.38217 8.36713 1.9585C8.7138 2.5305 8.8893 3.1675 8.89363 3.8695C8.89363 4.28983 8.85896 4.669 8.78963 5.007C8.7203 5.345 8.61413 5.66133 8.47113 5.956C8.33246 6.25067 8.1613 6.53883 7.95763 6.8205C7.7583 7.10217 7.5308 7.39683 7.27513 7.7045L4.55163 11H2.00363ZM4.82463 5.644C5.08896 5.644 5.3338 5.59633 5.55913 5.501C5.7888 5.40133 5.98813 5.26483 6.15713 5.0915C6.32613 4.91383 6.4583 4.708 6.55363 4.474C6.6533 4.24 6.70313 3.98867 6.70313 3.72C6.70313 3.356 6.6208 3.031 6.45613 2.745C6.2958 2.459 6.0748 2.23583 5.79313 2.0755C5.51146 1.91517 5.18863 1.835 4.82463 1.835C4.4563 1.835 4.12696 1.91733 3.83663 2.082C3.55063 2.24233 3.32313 2.4655 3.15413 2.7515C2.98946 3.03317 2.90713 3.356 2.90713 3.72C2.90713 4.084 2.98946 4.41117 3.15413 4.7015C3.32313 4.99183 3.5528 5.2215 3.84313 5.3905C4.13346 5.5595 4.46063 5.644 4.82463 5.644ZM14.5701 11.208C13.6947 11.208 12.9256 10.974 12.2626 10.506C11.5996 10.038 11.0817 9.38583 10.7091 8.5495C10.3407 7.71317 10.1566 6.74467 10.1566 5.644C10.1566 4.539 10.3407 3.5705 10.7091 2.7385C11.0817 1.90217 11.5996 1.25 12.2626 0.782C12.9256 0.314 13.6947 0.0799996 14.5701 0.0799996C15.4454 0.0799996 16.2124 0.314 16.8711 0.782C17.5341 1.25 18.0497 1.90217 18.4181 2.7385C18.7907 3.5705 18.9771 4.539 18.9771 5.644C18.9771 6.74467 18.7907 7.71317 18.4181 8.5495C18.0497 9.38583 17.5341 10.038 16.8711 10.506C16.2124 10.974 15.4454 11.208 14.5701 11.208ZM14.5701 9.3555C15.0207 9.3555 15.4086 9.206 15.7336 8.907C16.0586 8.608 16.3099 8.18117 16.4876 7.6265C16.6652 7.0675 16.7541 6.40667 16.7541 5.644C16.7541 4.877 16.6652 4.21617 16.4876 3.6615C16.3099 3.10683 16.0586 2.68 15.7336 2.381C15.4086 2.082 15.0207 1.9325 14.5701 1.9325C14.1194 1.9325 13.7294 2.082 13.4001 2.381C13.0751 2.68 12.8237 3.10683 12.6461 3.6615C12.4684 4.21617 12.3796 4.877 12.3796 5.644C12.3796 6.40667 12.4684 7.0675 12.6461 7.6265C12.8237 8.18117 13.0751 8.608 13.4001 8.907C13.7294 9.206 14.1194 9.3555 14.5701 9.3555Z" fill="white"/>
</svg>
