<svg width="20" height="16" viewBox="0 0 20 16" fill="none" xmlns="http://www.w3.org/2000/svg">
<path d="M9.29303 1.55005L10 2.25805L10.707 1.55105C11.1706 1.08342 11.7219 0.711952 12.3294 0.457977C12.9369 0.204001 13.5886 0.0725186 14.2471 0.0710768C14.9055 0.0696349 15.5578 0.198262 16.1664 0.449575C16.775 0.700887 17.3279 1.06994 17.7935 1.53553C18.2591 2.00113 18.6282 2.5541 18.8795 3.16271C19.1308 3.77131 19.2594 4.42356 19.258 5.08201C19.2566 5.74046 19.1251 6.39215 18.8711 6.99964C18.6171 7.60714 18.2457 8.1585 17.778 8.62205L10.708 15.693C10.6152 15.786 10.5049 15.8598 10.3835 15.9101C10.2621 15.9604 10.1319 15.9863 10.0005 15.9863C9.86911 15.9863 9.73898 15.9604 9.61759 15.9101C9.49619 15.8598 9.3859 15.786 9.29303 15.693L2.22203 8.62205C1.74804 8.15999 1.37051 7.60841 1.11135 6.99931C0.852196 6.39021 0.716563 5.73571 0.712322 5.07378C0.708081 4.41186 0.835316 3.75567 1.08665 3.1433C1.33798 2.53093 1.70841 1.97456 2.17644 1.50646C2.64447 1.03837 3.20078 0.667864 3.81312 0.416446C4.42546 0.165027 5.08162 0.0376987 5.74355 0.0418462C6.40548 0.0459937 7.05999 0.181535 7.66913 0.440607C8.27827 0.699678 8.8299 1.07712 9.29203 1.55105L9.29303 1.55005Z" fill="white"/>
</svg>
